<svg width="103" height="101" viewBox="0 0 103 101" fill="none" xmlns="http://www.w3.org/2000/svg">
<g id="market">
<g id="icon &#34;shop&#34;">
<g id="Rectangle 2" filter="url(#filter0_b_111_448)">
<path d="M0.793945 25.5896C0.793945 11.7502 12.0129 0.53125 25.8522 0.53125H77.6394C91.4787 0.53125 102.698 11.7502 102.698 25.5895V75.4729C102.698 89.3123 91.4787 100.531 77.6394 100.531H25.8522C12.0129 100.531 0.793945 89.3123 0.793945 75.473V25.5896Z" fill="white" fill-opacity="0.5"/>
</g>
<g id="Group">
<path id="Vector" d="M59.446 76.2073H45.5783C32.892 76.2073 27.499 71.0351 27.499 58.9502V47.9439C27.499 46.9389 28.3722 46.1055 29.4251 46.1055C30.478 46.1055 31.3511 46.9389 31.3511 47.9439V58.9502C31.3511 68.976 35.0749 72.5304 45.5783 72.5304H59.4203C69.9237 72.5304 73.6475 68.976 73.6475 58.9502V47.9439C73.6475 46.9389 74.5206 46.1055 75.5735 46.1055C76.6264 46.1055 77.4996 46.9389 77.4996 47.9439V58.9502C77.5253 71.0351 72.1066 76.2073 59.446 76.2073Z" fill="black" fill-opacity="0.8"/>
<path id="Vector_2" d="M52.5094 51.6942C49.6845 51.6942 47.1165 50.6402 45.2931 48.7036C43.4698 46.7671 42.6223 44.2423 42.9048 41.5459L44.6255 25.1713C44.7282 24.2398 45.55 23.5044 46.5515 23.5044H58.5444C59.5459 23.5044 60.3677 24.2153 60.4704 25.1713L62.191 41.5459C62.4735 44.2423 61.6261 46.7671 59.8027 48.7036C57.9024 50.6402 55.3343 51.6942 52.5094 51.6942ZM48.2721 27.1813L46.7313 41.9136C46.5515 43.5559 47.0651 45.1002 48.1437 46.2278C50.3265 48.5321 54.6923 48.5321 56.8751 46.2278C57.9537 45.0757 58.4673 43.5314 58.2876 41.9136L56.7467 27.1813H48.2721Z" fill="black" fill-opacity="0.8"/>
<path id="Vector_3" d="M68.7168 51.6942C63.5036 51.6942 58.8553 47.6741 58.3161 42.7225L56.5184 25.539C56.467 25.0242 56.6468 24.5094 57.0063 24.1172C57.3659 23.725 57.8795 23.5044 58.4445 23.5044H66.2771C73.8272 23.5044 77.3455 26.5195 78.3984 33.9224L79.1175 40.737C79.4256 43.6295 78.5011 46.3749 76.5237 48.4585C74.5463 50.5421 71.7728 51.6942 68.7168 51.6942ZM60.576 27.1813L62.1682 42.3548C62.502 45.4189 65.481 48.0173 68.7168 48.0173C70.6685 48.0173 72.4148 47.3064 73.6732 46.0072C74.9058 44.708 75.4708 42.9676 75.291 41.1046L74.572 34.3636C73.7759 28.8237 71.9012 27.1813 66.2771 27.1813H60.576Z" fill="black" fill-opacity="0.8"/>
<path id="Vector_4" d="M36.1766 51.6942C33.1206 51.6942 30.3471 50.5421 28.3697 48.4585C26.3922 46.3749 25.4677 43.6295 25.7759 40.737L26.4693 33.9959C27.5479 26.5195 31.0661 23.5044 38.6163 23.5044H46.4489C46.9882 23.5044 47.5017 23.725 47.887 24.1172C48.2722 24.5094 48.4263 25.0242 48.3749 25.539L46.5773 42.7225C46.038 47.6741 41.3898 51.6942 36.1766 51.6942ZM38.6163 27.1813C32.9922 27.1813 31.1175 28.7992 30.2957 34.4126L29.6023 41.1046C29.3969 42.9676 29.9876 44.708 31.2202 46.0072C32.4529 47.3064 34.1992 48.0173 36.1766 48.0173C39.4124 48.0173 42.4171 45.4189 42.7252 42.3548L44.3175 27.1813H38.6163Z" fill="black" fill-opacity="0.8"/>
<path id="Vector_5" d="M58.9315 76.2073H46.0911C45.0382 76.2073 44.165 75.3739 44.165 74.3688V68.2406C44.165 63.0929 47.1183 60.2739 52.5113 60.2739C57.9043 60.2739 60.8575 63.0929 60.8575 68.2406V74.3688C60.8575 75.3739 59.9844 76.2073 58.9315 76.2073ZM48.0172 72.5304H57.0054V68.2406C57.0054 65.152 55.7471 63.9509 52.5113 63.9509C49.2755 63.9509 48.0172 65.152 48.0172 68.2406V72.5304Z" fill="black" fill-opacity="0.8"/>
</g>
</g>
</g>
<defs>
<filter id="filter0_b_111_448" x="-5.48734" y="-5.75003" width="114.466" height="112.563" filterUnits="userSpaceOnUse" color-interpolation-filters="sRGB">
<feFlood flood-opacity="0" result="BackgroundImageFix"/>
<feGaussianBlur in="BackgroundImageFix" stdDeviation="3.14064"/>
<feComposite in2="SourceAlpha" operator="in" result="effect1_backgroundBlur_111_448"/>
<feBlend mode="normal" in="SourceGraphic" in2="effect1_backgroundBlur_111_448" result="shape"/>
</filter>
</defs>
</svg>
